<svg width="72" height="72" viewBox="0 0 72 72" fill="none" xmlns="http://www.w3.org/2000/svg">
<path d="M35.0393 0.853421C35.1744 -0.284474 36.8256 -0.284474 36.9607 0.853421L38.0934 10.3993C39.5559 22.7257 49.2743 32.4441 61.6006 33.9066L71.1465 35.0393C72.2845 35.1744 72.2845 36.8256 71.1465 36.9607L61.6006 38.0934C49.2743 39.5559 39.5559 49.2743 38.0934 61.6006L36.9607 71.1465C36.8256 72.2845 35.1744 72.2845 35.0393 71.1465L33.9066 61.6006C32.4441 49.2743 22.7257 39.5559 10.3993 38.0934L0.853421 36.9607C-0.284474 36.8256 -0.284474 35.1744 0.853421 35.0393L10.3993 33.9066C22.7257 32.4441 32.4441 22.7257 33.9066 10.3993L35.0393 0.853421Z" fill="#F5F5DC"/>
</svg>
