<svg width="165" height="175" viewBox="0 0 165 175" fill="none" xmlns="http://www.w3.org/2000/svg">
<path id="Spiral 1" d="M87.5179 92.4389C87.681 94.2799 84.267 95.288 82.4974 92.4389C80.5846 89.9222 81.991 84.0778 87.5179 82.3906C92.7236 80.3931 100.961 84.2275 102.58 92.4389C104.642 100.335 98.4137 110.986 87.5179 112.537C76.9607 114.671 63.8784 106.029 62.415 92.4389C60.1968 79.1809 71.2707 63.6902 87.5179 62.2926C103.45 60.0055 121.336 73.4834 122.662 92.4389C125.021 111.063 109.14 131.39 87.5179 132.634C66.215 135.074 43.5091 116.757 42.3328 92.4389C39.8273 68.4369 60.525 43.2989 87.5179 42.1952C114.17 39.6175 141.725 62.7422 142.744 92.4389C145.403 121.804 119.87 151.781 87.5179 152.732C55.4913 155.463 23.1302 127.501 22.2504 92.4389C19.4548 57.7087 49.7923 22.8982 87.5179 22.0976C124.906 19.2138 162.1 52.0142 162.827 92.4389C165.779 132.548 130.603 172.169 87.5179 172.829C44.7714 175.854 2.74183 138.242 2.16808 92.4389C-0.923954 46.9675 39.0654 2.50721 87.5179 2" stroke="#F5F5DC" stroke-width="3" stroke-linecap="round"/>
</svg>
