<svg width="118" height="117" viewBox="0 0 118 117" fill="none" xmlns="http://www.w3.org/2000/svg">
<path d="M59.0001 0L63.409 29.7428L76.4395 2.6136L71.8355 32.3272L92.3292 10.2221L79.1217 37.2664L105.257 22.1496L84.6197 44.1214L114.076 37.3361L87.8413 52.2833L118 54.4321L88.5001 61.0266L116.682 71.919L86.5379 69.575L110.239 88.2429L82.129 77.1683L99.2428 101.953L75.6646 83.1317L84.6709 111.831L67.7198 86.936L67.8184 117L59.0001 88.2429L50.1818 117L50.2804 86.936L33.3291 111.831L42.3356 83.1317L18.7573 101.953L35.8714 77.1683L7.76125 88.2429L31.4623 69.575L1.31795 71.919L29.5 61.0266L0 54.4321L30.159 52.2833L3.92443 37.3361L33.3807 44.1214L12.7426 22.1496L38.8786 37.2664L25.671 10.2221L46.1647 32.3272L41.5607 2.6136L54.5912 29.7428L59.0001 0Z" fill="#F5F5DC"/>
</svg>
