<svg width="57" height="65" viewBox="0 0 57 65" fill="none" xmlns="http://www.w3.org/2000/svg">
<g clip-path="url(#clip0_94_159)">
<path d="M28.5127 17.9001C20.4208 17.9001 13.8938 24.4128 13.8938 32.4871C13.8938 40.5613 20.4208 47.074 28.5127 47.074C36.6047 47.074 43.1317 40.5613 43.1317 32.4871C43.1317 24.4128 36.6047 17.9001 28.5127 17.9001ZM28.5127 41.9705C23.2835 41.9705 19.0085 37.7175 19.0085 32.4871C19.0085 27.2566 23.2708 23.0037 28.5127 23.0037C33.7547 23.0037 38.017 27.2566 38.017 32.4871C38.017 37.7175 33.742 41.9705 28.5127 41.9705ZM47.1395 17.3035C47.1395 19.1951 45.6127 20.7058 43.7297 20.7058C41.8339 20.7058 40.3199 19.1824 40.3199 17.3035C40.3199 15.4246 41.8467 13.9011 43.7297 13.9011C45.6127 13.9011 47.1395 15.4246 47.1395 17.3035ZM56.8219 20.7566C56.6056 16.199 55.5623 12.1619 52.2161 8.83569C48.8826 5.50952 44.8366 4.46851 40.269 4.23999C35.5614 3.97339 21.4513 3.97339 16.7438 4.23999C12.1888 4.45581 8.14286 5.49683 4.79665 8.823C1.45045 12.1492 0.419866 16.1863 0.190848 20.7439C-0.0763393 25.4412 -0.0763393 39.5203 0.190848 44.2175C0.407143 48.7751 1.45045 52.8123 4.79665 56.1384C8.14286 59.4646 12.1761 60.5056 16.7438 60.7341C21.4513 61.0007 35.5614 61.0007 40.269 60.7341C44.8366 60.5183 48.8826 59.4773 52.2161 56.1384C55.5496 52.8123 56.5929 48.7751 56.8219 44.2175C57.0891 39.5203 57.0891 25.4539 56.8219 20.7566ZM50.7402 49.2576C49.7478 51.7458 47.8266 53.6628 45.3201 54.6658C41.5667 56.1511 32.6605 55.8083 28.5127 55.8083C24.365 55.8083 15.446 56.1384 11.7054 54.6658C9.21161 53.6755 7.2904 51.7585 6.28527 49.2576C4.79665 45.5125 5.14018 36.6257 5.14018 32.4871C5.14018 28.3484 4.80938 19.449 6.28527 15.7166C7.27768 13.2283 9.19888 11.3113 11.7054 10.3083C15.4587 8.823 24.365 9.16577 28.5127 9.16577C32.6605 9.16577 41.5795 8.83569 45.3201 10.3083C47.8138 11.2986 49.735 13.2156 50.7402 15.7166C52.2288 19.4617 51.8853 28.3484 51.8853 32.4871C51.8853 36.6257 52.2288 45.5251 50.7402 49.2576Z" fill="black"/>
</g>
<defs>
<clipPath id="clip0_94_159">
<rect width="57" height="65" fill="white"/>
</clipPath>
</defs>
</svg>
