<svg width="57" height="58" viewBox="0 0 57 58" fill="none" xmlns="http://www.w3.org/2000/svg">
<path d="M28.5 0.90625C12.7598 0.90625 0 13.4842 0 29C0 44.5158 12.7598 57.0938 28.5 57.0938C44.2402 57.0938 57 44.5158 57 29C57 13.4842 44.2402 0.90625 28.5 0.90625ZM41.7102 20.0123C41.2813 24.4546 39.4255 35.2348 38.481 40.2103C38.0815 42.3155 37.2948 43.0215 36.5333 43.0905C34.8785 43.2407 33.6215 42.0124 32.0185 40.9765C29.5101 39.3557 28.0931 38.3467 25.6582 36.7651C22.8444 34.9373 24.6685 33.9331 26.2721 32.2905C26.6917 31.8608 33.984 25.3225 34.1251 24.7294C34.1427 24.6552 34.1595 24.3782 33.9925 24.2328C33.8254 24.0873 33.5799 24.1366 33.4023 24.1761C33.1508 24.2325 29.1437 26.8433 21.3809 32.0086C20.2435 32.7785 19.2133 33.1536 18.2902 33.134C17.2726 33.1123 15.3152 32.5669 13.86 32.1005C12.0752 31.5287 10.6566 31.2263 10.7801 30.255C10.8445 29.7491 11.5512 29.2317 12.9004 28.7031C21.2087 25.1349 26.7489 22.7824 29.5209 21.6457C37.4357 18.4005 39.0803 17.8368 40.1522 17.818C40.3881 17.8142 40.9152 17.8717 41.2566 18.1448C41.4837 18.3394 41.6285 18.6109 41.6623 18.9056C41.7201 19.2716 41.7362 19.6428 41.7102 20.0123Z" fill="black"/>
</svg>
