<svg width="54" height="56" viewBox="0 0 54 56" fill="none" xmlns="http://www.w3.org/2000/svg">
<path d="M45.9121 8.7582C40.8616 3.67227 34.1357 0.875 26.9879 0.875C12.2344 0.875 0.229018 12.9359 0.229018 27.7578C0.229018 32.4926 1.45848 37.1184 3.79688 41.1992L0 55.125L14.1871 51.3832C18.0924 53.5266 22.492 54.6527 26.9759 54.6527H26.9879C41.7295 54.6527 54 42.5918 54 27.7699C54 20.5891 50.9625 13.8441 45.9121 8.7582ZM26.9879 50.1238C22.9862 50.1238 19.0688 49.0461 15.6576 47.0117L14.85 46.5273L6.43661 48.7434L8.67857 40.4969L8.14821 39.6492C5.9183 36.0891 4.74911 31.984 4.74911 27.7578C4.74911 15.4426 14.7295 5.41602 27 5.41602C32.9424 5.41602 38.5232 7.74102 42.7179 11.9672C46.9125 16.1934 49.492 21.8 49.4799 27.7699C49.4799 40.0973 39.2464 50.1238 26.9879 50.1238ZM39.1862 33.3887C38.5232 33.0496 35.2326 31.427 34.6179 31.209C34.0031 30.9789 33.5571 30.8699 33.1112 31.548C32.6652 32.2262 31.3875 33.7277 30.9897 34.1879C30.604 34.6359 30.2063 34.6965 29.5433 34.3574C25.6138 32.3836 23.0344 30.8336 20.4429 26.3652C19.7558 25.1785 21.1299 25.2633 22.4076 22.6961C22.6246 22.248 22.5161 21.8605 22.3473 21.5215C22.1786 21.1824 20.8406 17.8766 20.2862 16.5324C19.7438 15.2246 19.1893 15.4062 18.7795 15.382C18.3938 15.3578 17.9478 15.3578 17.5018 15.3578C17.0558 15.3578 16.3326 15.5273 15.7179 16.1934C15.1031 16.8715 13.3795 18.4941 13.3795 21.8C13.3795 25.1059 15.7781 28.3027 16.1036 28.7508C16.4411 29.1988 20.8165 35.9801 27.5304 38.8984C31.7732 40.7391 33.4366 40.8965 35.558 40.5816C36.8478 40.3879 39.5116 38.959 40.0661 37.3848C40.6205 35.8105 40.6205 34.4664 40.4518 34.1879C40.2951 33.8852 39.8491 33.7156 39.1862 33.3887Z" fill="black"/>
</svg>
